<svg width="483" height="439" viewBox="0 0 483 439" fill="none" xmlns="http://www.w3.org/2000/svg">
<path d="M267.516 90.3333L212.974 58.8594V1.29688C212.974 0.578125 213.557 0 214.276 0C214.99 0 215.573 0.578125 215.573 1.29688V57.3594L267.516 87.3385L319.463 57.3594V1.29688C319.463 0.578125 320.042 0 320.76 0C321.479 0 322.062 0.578125 322.062 1.29688V58.8594L267.516 90.3333Z" fill="#81ABC0"/>
<path d="M315.88 11.5416C315.88 8.84888 318.068 6.66138 320.76 6.66138C323.458 6.66138 325.641 8.84888 325.641 11.5416C325.641 14.2343 323.458 16.4218 320.76 16.4218C318.068 16.4218 315.88 14.2343 315.88 11.5416Z" fill="#81ABC0"/>
<path d="M219.156 11.5416C219.156 8.84888 216.969 6.66138 214.276 6.66138C211.578 6.66138 209.391 8.84888 209.391 11.5416C209.391 14.2343 211.578 16.4218 214.276 16.4218C216.969 16.4218 219.156 14.2343 219.156 11.5416Z" fill="#81ABC0"/>
<path d="M321.365 252.146L374.115 282.589L426.87 252.146V191.266L374.115 160.823L321.365 191.266V252.146ZM374.115 283.724L320.38 252.714V190.698L374.115 159.688L427.854 190.698V252.714L374.115 283.724Z" fill="#81ABC0"/>
<path d="M107.786 253.729C107.068 253.729 106.49 253.146 106.49 252.432V191.729L54.5417 161.755L2.59896 191.729V247.177C2.59896 247.896 2.01563 248.474 1.29688 248.474C0.578126 248.474 0 247.896 0 247.177V190.229L54.5417 158.76L109.083 190.229V252.432C109.083 253.146 108.505 253.729 107.786 253.729Z" fill="#81ABC0"/>
<path d="M214.766 252.146L267.516 282.589L320.271 252.146V191.266L267.516 160.823L214.766 191.266V252.146ZM267.516 283.724L213.781 252.714V190.698L267.516 159.688L321.255 190.698V252.714L267.516 283.724Z" fill="#81ABC0"/>
<path d="M108.276 252.146L161.031 282.589L213.781 252.146V191.266L161.031 160.823L108.276 191.266V252.146ZM161.031 283.724L107.292 252.714V190.698L161.031 159.688L214.766 190.698V252.714L161.031 283.724Z" fill="#81ABC0"/>
<path d="M161.521 344.063L214.276 374.505L267.026 344.063V283.182L214.276 252.74L161.521 283.182V344.063ZM214.276 375.641L160.536 344.63V282.615L214.276 251.604L268.01 282.615V344.63L214.276 375.641Z" fill="#81ABC0"/>
<path d="M268.01 159.859L320.76 190.297L373.516 159.859V98.9792L320.76 68.5365L268.01 98.9792V159.859ZM320.76 191.432L267.026 160.427V98.4115L320.76 67.4011L374.5 98.4115V160.427L320.76 191.432Z" fill="#81ABC0"/>
<path d="M107.786 192.505L53.2448 161.036V98.8333C53.2448 98.1197 53.8229 97.5364 54.5416 97.5364C55.2604 97.5364 55.8385 98.1197 55.8385 98.8333V159.536L107.786 189.51L159.729 159.536V103.469C159.729 102.755 160.312 102.172 161.031 102.172C161.745 102.172 162.328 102.755 162.328 103.469V161.036L107.786 192.505Z" fill="#81ABC0"/>
<path d="M165.911 103.713C165.911 101.021 163.724 98.8333 161.031 98.8333C158.333 98.8333 156.151 101.021 156.151 103.713C156.151 106.411 158.333 108.594 161.031 108.594C163.724 108.594 165.911 106.411 165.911 103.713Z" fill="#81ABC0"/>
<mask id="mask0_3105_4859" style="mask-type:luminance" maskUnits="userSpaceOnUse" x="211" y="342" width="112" height="97">
<path d="M211.745 342.641H322.411V438.047H211.745V342.641Z" fill="white"/>
</mask>
<g mask="url(#mask0_3105_4859)">
<path d="M214.276 438.047C213.557 438.047 212.974 437.464 212.974 436.75V374.552L267.516 343.078L322.062 374.552V431.5C322.062 432.214 321.479 432.797 320.76 432.797C320.042 432.797 319.463 432.214 319.463 431.5V376.047L267.516 346.073L215.573 376.047V436.75C215.573 437.464 214.99 438.047 214.276 438.047Z" fill="#81ABC0"/>
</g>
<path d="M315.88 431.219C315.88 433.917 318.068 436.099 320.76 436.099C323.458 436.099 325.641 433.917 325.641 431.219C325.641 428.526 323.458 426.344 320.76 426.344C318.068 426.344 315.88 428.526 315.88 431.219Z" fill="white"/>
<path d="M324.995 431.219C324.995 428.891 323.099 426.99 320.76 426.99C318.427 426.99 316.531 428.891 316.531 431.219C316.531 433.552 318.427 435.453 320.76 435.453C323.099 435.453 324.995 433.552 324.995 431.219C324.995 433.552 324.995 428.891 324.995 431.219ZM315.229 431.219C315.229 428.172 317.714 425.693 320.76 425.693C323.813 425.693 326.292 428.172 326.292 431.219C326.292 434.271 323.813 436.75 320.76 436.75C317.714 436.75 315.229 434.271 315.229 431.219C315.229 434.271 315.229 428.172 315.229 431.219Z" fill="#81ABC0"/>
<mask id="mask1_3105_4859" style="mask-type:luminance" maskUnits="userSpaceOnUse" x="371" y="67" width="112" height="127">
<path d="M371.745 67.9739H482.089V193.307H371.745V67.9739Z" fill="white"/>
</mask>
<g mask="url(#mask1_3105_4859)">
<path d="M427.083 192.364L372.703 160.614L373.026 97.6666L422.51 69.4426C423.135 69.0885 423.927 69.3072 424.281 69.927C424.635 70.552 424.422 71.3437 423.797 71.6978L375.615 99.177L375.307 159.13L427.099 189.37L479.849 159.286C480.469 158.927 481.266 159.146 481.62 159.771C481.974 160.391 481.76 161.182 481.135 161.542L427.083 192.364Z" fill="#81ABC0"/>
</g>
<path d="M425.333 74.9479C427.672 73.6094 428.49 70.6302 427.151 68.2917C425.818 65.9479 422.833 65.1354 420.495 66.4688C418.151 67.8073 417.339 70.7865 418.672 73.125C420.01 75.4688 422.99 76.2813 425.333 74.9479Z" fill="white"/>
<path d="M420.818 67.0366C418.792 68.1928 418.083 70.7813 419.24 72.8022C420.396 74.8334 422.984 75.5418 425.011 74.3803C427.042 73.2241 427.745 70.6407 426.589 68.6147C425.432 66.5886 422.844 65.8803 420.818 67.0366C422.844 65.8803 418.792 68.1928 420.818 67.0366ZM425.656 75.5105C423.005 77.0209 419.62 76.0938 418.109 73.448C416.599 70.8022 417.526 67.4168 420.172 65.9063C422.823 64.3959 426.208 65.323 427.719 67.9688C429.229 70.6147 428.302 74.0001 425.656 75.5105C428.302 74.0001 423.005 77.0209 425.656 75.5105Z" fill="#81ABC0"/>
<mask id="mask2_3105_4859" style="mask-type:luminance" maskUnits="userSpaceOnUse" x="371" y="250" width="112" height="125">
<path d="M371.745 250.641H482.089V374.641H371.745V250.641Z" fill="white"/>
</mask>
<g mask="url(#mask2_3105_4859)">
<path d="M422.703 373.734C422.479 373.734 422.255 373.677 422.052 373.562L372.76 345L372.875 282.052L427.474 250.677L481.313 281.87C481.932 282.229 482.141 283.026 481.781 283.646C481.422 284.266 480.63 284.474 480.011 284.12L427.469 253.672L375.469 283.552L375.359 343.505L423.354 371.318C423.974 371.677 424.188 372.469 423.828 373.088C423.589 373.505 423.151 373.734 422.703 373.734Z" fill="#81ABC0"/>
</g>
<path d="M420.016 376.521C422.349 377.87 425.333 377.078 426.688 374.745C428.042 372.417 427.245 369.432 424.912 368.078C422.583 366.729 419.594 367.521 418.24 369.854C416.891 372.182 417.682 375.167 420.016 376.521Z" fill="white"/>
<path d="M424.588 368.641C422.568 367.469 419.974 368.162 418.802 370.177C417.63 372.198 418.323 374.787 420.344 375.958C422.359 377.13 424.953 376.438 426.125 374.422C427.297 372.401 426.609 369.813 424.588 368.641C426.609 369.813 422.568 367.469 424.588 368.641ZM419.693 377.083C417.052 375.552 416.151 372.162 417.682 369.526C419.208 366.891 422.599 365.99 425.24 367.516C427.875 369.047 428.776 372.432 427.25 375.073C425.719 377.708 422.328 378.609 419.693 377.083C422.328 378.609 417.052 375.552 419.693 377.083Z" fill="#81ABC0"/>
</svg>
